# xmcd
#
# Track frame offsets:
#	150
#	6544
#	19585
#	37643
#	48750
#	59688
#	77295
#	91160
#	107140
#	120607
#	139602
#
# Disc length: 2060 seconds
#
# Revision: 0
# Processed by: cddbd v1.5.2PL0 Copyright (c) Steve Scherf et al.
# Submitted via: audiograbber 1.83.01
#
DISCID=7b080a0b
DTITLE=Catherine Lara - Coup d'feel
DYEAR=1979
DGENRE=Chanson francaise
TTITLE0=Les grandes ondes
TTITLE1=Toi ma mere
TTITLE2=Fuite et fin
TTITLE3=SVP
TTITLE4=Les orties
TTITLE5=Eblouis-moi
TTITLE6=Coup d'feel
TTITLE7=Rock and reel de Montreal
TTITLE8=Petit homme
TTITLE9=Johnny B
TTITLE10=Aloha
EXTD=
EXTT0=
EXTT1=
EXTT2=
EXTT3=
EXTT4=
EXTT5=
EXTT6=
EXTT7=
EXTT8=
EXTT9=
EXTT10=
PLAYORDER=
